<svg width="24" height="24" viewBox="0 0 24 24" fill="none" xmlns="http://www.w3.org/2000/svg">
<path fill-rule="evenodd" clip-rule="evenodd" d="M8.31426 12.7513L13.2441 17.6811C13.3424 17.7814 13.4597 17.8613 13.589 17.916C13.7183 17.9707 13.8573 17.9993 13.9977 18C14.1381 18.0007 14.2773 17.9736 14.4072 17.9201C14.5371 17.8667 14.6551 17.7881 14.7544 17.6888C14.8538 17.5895 14.9324 17.4714 14.9858 17.3416C15.0392 17.2117 15.0664 17.0725 15.0657 16.932C15.065 16.7916 15.0364 16.6527 14.9817 16.5233C14.927 16.394 14.8471 16.2768 14.7468 16.1785L10.5608 11.9924L14.7468 7.80636C14.9428 7.60641 15.0519 7.3372 15.0505 7.05725C15.0491 6.77729 14.9372 6.5092 14.7393 6.31123C14.5413 6.11327 14.2732 6.00143 13.9933 6.00001C13.7133 5.9986 13.4441 6.10773 13.2441 6.30368L8.31426 11.2325C8.11304 11.4338 8 11.7067 8 11.9913C8 12.2759 8.11304 12.5489 8.31426 12.7502V12.7513Z" fill="black"/>
</svg>
