<svg width="24" height="24" viewBox="0 0 24 24" fill="none" xmlns="http://www.w3.org/2000/svg">
<path fill-rule="evenodd" clip-rule="evenodd" d="M14.7514 11.2487L9.82154 6.31886C9.72324 6.21855 9.60602 6.13872 9.47668 6.084C9.34733 6.02927 9.20842 6.00072 9.06797 6.00001C8.92753 5.9993 8.78833 6.02644 8.65844 6.07986C8.52855 6.13328 8.41054 6.21192 8.31123 6.31123C8.21192 6.41054 8.13328 6.52856 8.07986 6.65845C8.02644 6.78834 7.9993 6.92753 8.00001 7.06798C8.00072 7.20842 8.02926 7.34734 8.08399 7.47668C8.13872 7.60603 8.21855 7.72324 8.31885 7.82154L12.5049 12.0076L8.31886 16.1936C8.1229 16.3936 8.01377 16.6628 8.01519 16.9428C8.0166 17.2227 8.12844 17.4908 8.32641 17.6888C8.52437 17.8867 8.79246 17.9986 9.07242 18C9.35238 18.0014 9.62159 17.8923 9.82154 17.6963L14.7514 12.7675C14.9526 12.5662 15.0657 12.2933 15.0657 12.0087C15.0657 11.7241 14.9526 11.4511 14.7514 11.2498L14.7514 11.2487Z" fill="black"/>
</svg>
