<svg width="24" height="24" viewBox="0 0 24 24" fill="none" xmlns="http://www.w3.org/2000/svg">
<path fill-rule="evenodd" clip-rule="evenodd" d="M11.2487 9.31426L6.31886 14.2441C6.21855 14.3424 6.13872 14.4597 6.084 14.589C6.02927 14.7183 6.00072 14.8573 6.00001 14.9977C5.9993 15.1381 6.02644 15.2773 6.07986 15.4072C6.13328 15.5371 6.21192 15.6551 6.31123 15.7544C6.41054 15.8538 6.52856 15.9324 6.65845 15.9858C6.78834 16.0392 6.92753 16.0664 7.06798 16.0657C7.20842 16.065 7.34734 16.0364 7.47668 15.9817C7.60603 15.927 7.72324 15.8471 7.82154 15.7468L12.0076 11.5608L16.1936 15.7468C16.3936 15.9428 16.6628 16.0519 16.9428 16.0505C17.2227 16.0491 17.4908 15.9372 17.6888 15.7393C17.8867 15.5413 17.9986 15.2732 18 14.9933C18.0014 14.7133 17.8923 14.4441 17.6963 14.2441L12.7675 9.31426C12.5662 9.11304 12.2933 9 12.0087 9C11.7241 9 11.4511 9.11304 11.2498 9.31426L11.2487 9.31426Z" fill="black"/>
</svg>
