<svg width="24" height="24" viewBox="0 0 24 24" fill="none" xmlns="http://www.w3.org/2000/svg">
<path fill-rule="evenodd" clip-rule="evenodd" d="M12.7513 15.7514L17.6811 10.8215C17.7814 10.7232 17.8613 10.606 17.916 10.4767C17.9707 10.3473 17.9993 10.2084 18 10.068C18.0007 9.92753 17.9736 9.78833 17.9201 9.65844C17.8667 9.52855 17.7881 9.41054 17.6888 9.31123C17.5895 9.21192 17.4714 9.13328 17.3416 9.07986C17.2117 9.02644 17.0725 8.9993 16.932 9.00001C16.7916 9.00072 16.6527 9.02926 16.5233 9.08399C16.394 9.13872 16.2768 9.21855 16.1785 9.31885L11.9924 13.5049L7.80636 9.31885C7.60641 9.1229 7.3372 9.01377 7.05724 9.01519C6.77729 9.0166 6.5092 9.12844 6.31123 9.32641C6.11327 9.52437 6.00143 9.79246 6.00001 10.0724C5.9986 10.3524 6.10772 10.6216 6.30368 10.8215L11.2325 15.7514C11.4338 15.9526 11.7067 16.0657 11.9913 16.0657C12.2759 16.0657 12.5489 15.9526 12.7502 15.7514L12.7513 15.7514Z" fill="black"/>
</svg>
