<svg width="24" height="24" viewBox="0 0 24 24" fill="none" xmlns="http://www.w3.org/2000/svg">
<path d="M19.0053 20.5H19.005H4.995C4.59863 20.5 4.21849 20.3426 3.93814 20.0624C3.65785 19.7822 3.50026 19.4023 3.5 19.006C3.5 19.0059 3.5 19.0058 3.5 19.0058L3.5 6.994C3.5 6.16914 4.16814 5.5 4.995 5.5H5.5H6H8H8.5H15.5H16H18H18.5H19.005C19.8307 5.5 20.5 6.17098 20.5 6.994V19.006C20.5 19.2023 20.4613 19.3966 20.3862 19.5779C20.3111 19.7592 20.201 19.9239 20.0622 20.0627C19.9233 20.2014 19.7586 20.3115 19.5772 20.3865C19.3959 20.4615 19.2015 20.5001 19.0053 20.5ZM7.5 4.5H6.5V4C6.5 3.86739 6.55268 3.74021 6.64645 3.64645C6.74022 3.55268 6.86739 3.5 7 3.5C7.13261 3.5 7.25979 3.55268 7.35355 3.64645C7.44732 3.74021 7.5 3.86739 7.5 4V4.5ZM17.5 4.5H16.5V4C16.5 3.86739 16.5527 3.74021 16.6464 3.64645C16.7402 3.55268 16.8674 3.5 17 3.5C17.1326 3.5 17.2598 3.55268 17.3536 3.64645C17.4473 3.74021 17.5 3.86739 17.5 4V4.5ZM4.5 7.5H4V8V18.5C4 18.8978 4.15804 19.2794 4.43934 19.5607C4.56865 19.69 4.74029 19.7617 4.85477 19.8027C4.98637 19.8498 5.13166 19.8862 5.26783 19.9139C5.53534 19.9682 5.82481 20 6 20H18.5C18.8978 20 19.2794 19.842 19.5607 19.5607C19.842 19.2794 20 18.8978 20 18.5V13V8V7.5H19.5H4.5ZM7.5 12.5V11.499H8.5V12.5H7.5ZM15.5 12.5V11.499H16.5V12.5H15.5ZM11.5 12.5V11.499H12.501V12.5H11.5ZM7.5 16.5V15.5H8.5V16.5H7.5ZM11.5 16.5V15.5H12.501V16.5H11.5ZM15.5 16.5V15.5H16.5V16.5H15.5Z" fill="black" stroke="black"/>
</svg>
