<svg width="24" height="24" viewBox="0 0 24 24" fill="none" xmlns="http://www.w3.org/2000/svg">
<rect width="24" height="24" fill="white" fill-opacity="0.01"/>
<path fill-rule="evenodd" clip-rule="evenodd" d="M12 18C15.3137 18 18 15.3137 18 12C18 8.68629 15.3137 6 12 6C8.68629 6 6 8.68629 6 12C6 15.3137 8.68629 18 12 18ZM11.1551 12.0092L10.2702 12.8994C10.2131 12.9549 10.1676 13.0212 10.1364 13.0945C10.1051 13.1678 10.0888 13.2466 10.0884 13.3262C10.0879 13.4059 10.1033 13.4848 10.1337 13.5585C10.1641 13.6321 10.2088 13.699 10.2653 13.7551C10.3218 13.8113 10.3889 13.8557 10.4627 13.8856C10.5365 13.9156 10.6155 13.9306 10.6952 13.9296C10.7748 13.9287 10.8535 13.912 10.9266 13.8803C10.9997 13.8487 11.0658 13.8028 11.121 13.7454L12.0016 12.8595L12.8652 13.7268C12.9775 13.8396 13.13 13.9032 13.2891 13.9036C13.4483 13.904 13.6011 13.8412 13.7139 13.7289C13.8267 13.6166 13.8903 13.4642 13.8907 13.305C13.8911 13.1458 13.8283 12.993 13.716 12.8802L12.8476 12.0085L13.737 11.1138C13.846 11.0003 13.9061 10.8486 13.9043 10.6912C13.9025 10.5339 13.839 10.3836 13.7274 10.2726C13.6158 10.1617 13.4651 10.099 13.3078 10.0981C13.1504 10.0972 12.999 10.1581 12.8862 10.2678L12.0009 11.1584L11.1 10.254C10.9871 10.1445 10.8356 10.0836 10.6783 10.0847C10.521 10.0857 10.3703 10.1485 10.2588 10.2595C10.1474 10.3705 10.0839 10.5209 10.0822 10.6782C10.0805 10.8355 10.1407 10.9872 10.2498 11.1006L11.1551 12.0092Z" fill="black"/>
</svg>
