<svg width="24" height="24" viewBox="0 0 24 24" fill="none" xmlns="http://www.w3.org/2000/svg">
<path d="M12.389 11.632V11.839L12.5354 11.9855L14.4763 13.9274C14.4764 13.9275 14.4765 13.9276 14.4766 13.9277C14.5492 14.001 14.5899 14.0999 14.5899 14.203C14.5899 14.3058 14.5495 14.4045 14.4773 14.4776C14.4041 14.5499 14.3054 14.5904 14.2025 14.5904C14.0993 14.5904 14.0002 14.5496 13.927 14.4769C13.9269 14.4768 13.9268 14.4767 13.9267 14.4766L11.7325 12.2834L11.7325 12.2834L11.7293 12.2802C11.6539 12.2062 11.611 12.1095 11.611 12.004V8.449C11.611 8.23478 11.7875 8.059 12 8.059C12.2129 8.059 12.389 8.23514 12.389 8.448V11.632ZM11.9994 18.722L12.0006 18.722C13.7826 18.7197 15.4908 18.0108 16.7508 16.7508C18.0108 15.4908 18.7197 13.7826 18.722 12.0006L18.722 11.9994C18.7197 10.2174 18.0108 8.50917 16.7508 7.24917C15.4908 5.98916 13.7826 5.28029 12.0006 5.278L11.9994 5.278C10.2174 5.28029 8.50917 5.98916 7.24917 7.24917C5.98916 8.50917 5.28029 10.2174 5.278 11.9994L5.278 12.0006C5.28029 13.7826 5.98916 15.4908 7.24917 16.7508C8.50917 18.0108 10.2174 18.7197 11.9994 18.722ZM4.5 12C4.5 7.86414 7.86414 4.5 12 4.5C16.1359 4.5 19.5 7.86414 19.5 12C19.5 16.1359 16.1359 19.5 12 19.5C7.86414 19.5 4.5 16.1359 4.5 12Z" fill="black" stroke="black"/>
</svg>
