<svg width="24" height="24" viewBox="0 0 24 24" fill="none" xmlns="http://www.w3.org/2000/svg">
<path d="M7.5 18.75C9.15685 18.75 10.5 17.4069 10.5 15.75C10.5 14.0931 9.15685 12.75 7.5 12.75C5.84315 12.75 4.5 14.0931 4.5 15.75C4.5 17.4069 5.84315 18.75 7.5 18.75Z" stroke="black" stroke-width="1.5" stroke-linecap="round" stroke-linejoin="round"/>
<path d="M2.99976 20.9998C3.52379 20.3013 4.20324 19.7343 4.98431 19.3438C5.76539 18.9533 6.62664 18.75 7.49989 18.75C8.37314 18.75 9.2344 18.9532 10.0155 19.3437C10.7966 19.7342 11.4761 20.3011 12.0001 20.9996" stroke="black" stroke-width="1.5" stroke-linecap="round" stroke-linejoin="round"/>
<path d="M7.5 9C9.15685 9 10.5 7.65685 10.5 6C10.5 4.34315 9.15685 3 7.5 3C5.84315 3 4.5 4.34315 4.5 6C4.5 7.65685 5.84315 9 7.5 9Z" stroke="black" stroke-width="1.5" stroke-linecap="round" stroke-linejoin="round"/>
<path d="M2.99976 11.2498C3.52379 10.5513 4.20324 9.98431 4.98431 9.59382C5.76539 9.20332 6.62664 9.00002 7.49989 9C8.37314 8.99998 9.2344 9.20324 10.0155 9.5937C10.7966 9.98416 11.4761 10.5511 12.0001 11.2496" stroke="black" stroke-width="1.5" stroke-linecap="round" stroke-linejoin="round"/>
<path d="M16.5 18.75C18.1569 18.75 19.5 17.4069 19.5 15.75C19.5 14.0931 18.1569 12.75 16.5 12.75C14.8431 12.75 13.5 14.0931 13.5 15.75C13.5 17.4069 14.8431 18.75 16.5 18.75Z" stroke="black" stroke-width="1.5" stroke-linecap="round" stroke-linejoin="round"/>
<path d="M11.9998 20.9998C12.5238 20.3013 13.2032 19.7343 13.9843 19.3438C14.7654 18.9533 15.6266 18.75 16.4999 18.75C17.3731 18.75 18.2344 18.9532 19.0155 19.3437C19.7966 19.7342 20.4761 20.3011 21.0001 20.9996" stroke="black" stroke-width="1.5" stroke-linecap="round" stroke-linejoin="round"/>
<path d="M16.5 9C18.1569 9 19.5 7.65685 19.5 6C19.5 4.34315 18.1569 3 16.5 3C14.8431 3 13.5 4.34315 13.5 6C13.5 7.65685 14.8431 9 16.5 9Z" stroke="black" stroke-width="1.5" stroke-linecap="round" stroke-linejoin="round"/>
<path d="M11.9998 11.2498C12.5238 10.5513 13.2032 9.98431 13.9843 9.59382C14.7654 9.20332 15.6266 9.00002 16.4999 9C17.3731 8.99998 18.2344 9.20324 19.0155 9.5937C19.7966 9.98416 20.4761 10.5511 21.0001 11.2496" stroke="black" stroke-width="1.5" stroke-linecap="round" stroke-linejoin="round"/>
</svg>
