<svg width="24" height="24" viewBox="0 0 24 24" fill="none" xmlns="http://www.w3.org/2000/svg">
<path d="M11.9995 14.25C12.6208 14.25 13.1245 13.7463 13.1245 13.125C13.1245 12.5037 12.6208 12 11.9995 12C11.3781 12 10.8745 12.5037 10.8745 13.125C10.8745 13.7463 11.3781 14.25 11.9995 14.25Z" fill="black"/>
<path d="M19.4995 7.5H16.1245V4.875C16.1245 3.78098 15.6899 2.73177 14.9163 1.95818C14.1427 1.1846 13.0935 0.75 11.9995 0.75C10.9054 0.75 9.85622 1.1846 9.08263 1.95818C8.30905 2.73177 7.87445 3.78098 7.87445 4.875V7.5H4.49945C4.10177 7.50045 3.7205 7.65864 3.43929 7.93984C3.15809 8.22105 2.99991 8.60231 2.99945 9V19.5C2.99991 19.8977 3.15809 20.279 3.43929 20.5602C3.7205 20.8414 4.10177 20.9995 4.49945 21H19.4995C19.8971 20.9995 20.2784 20.8414 20.5596 20.5602C20.8408 20.279 20.999 19.8977 20.9995 19.5V9C20.999 8.60231 20.8408 8.22105 20.5596 7.93984C20.2784 7.65864 19.8971 7.50045 19.4995 7.5ZM12.7495 15.6403V17.25C12.7495 17.4489 12.6704 17.6397 12.5298 17.7803C12.3891 17.921 12.1984 18 11.9995 18C11.8005 18 11.6098 17.921 11.4691 17.7803C11.3285 17.6397 11.2495 17.4489 11.2495 17.25V15.6403C10.6452 15.4601 10.126 15.0685 9.78675 14.537C9.44751 14.0055 9.31092 13.3696 9.40195 12.7457C9.49298 12.1218 9.80555 11.5515 10.2825 11.139C10.7595 10.7266 11.3689 10.4997 11.9995 10.4997C12.63 10.4997 13.2394 10.7266 13.7164 11.139C14.1934 11.5515 14.5059 12.1218 14.597 12.7457C14.688 13.3696 14.5514 14.0055 14.2122 14.537C13.8729 15.0685 13.3537 15.4601 12.7495 15.6403ZM14.6245 7.5H9.37445V4.875C9.37445 4.17881 9.65101 3.51113 10.1433 3.01884C10.6356 2.52656 11.3033 2.25 11.9995 2.25C12.6956 2.25 13.3633 2.52656 13.8556 3.01884C14.3479 3.51113 14.6245 4.17881 14.6245 4.875V7.5Z" fill="black"/>
</svg>