<svg width="24" height="24" viewBox="0 0 24 24" fill="none" xmlns="http://www.w3.org/2000/svg">
<path d="M20.5 6L4 6.00001" stroke="black" stroke-width="1.5" stroke-linecap="round" stroke-linejoin="round"/>
<path d="M10.0004 10.5V16.5" stroke="black" stroke-width="1.5" stroke-linecap="round" stroke-linejoin="round"/>
<path d="M14.5004 10.5V16.5" stroke="black" stroke-width="1.5" stroke-linecap="round" stroke-linejoin="round"/>
<path d="M19.0004 6V20.25C19.0004 20.4489 18.9213 20.6397 18.7807 20.7803C18.64 20.921 18.4493 21 18.2504 21H6.25037C6.05145 21 5.86069 20.921 5.72004 20.7803C5.57938 20.6397 5.50037 20.4489 5.50037 20.25V6" stroke="black" stroke-width="1.5" stroke-linecap="round" stroke-linejoin="round"/>
<path d="M16.0004 6V4.5C16.0004 4.10218 15.8423 3.72064 15.561 3.43934C15.2797 3.15804 14.8982 3 14.5004 3H10.0004C9.60254 3 9.22101 3.15804 8.93971 3.43934C8.6584 3.72064 8.50037 4.10218 8.50037 4.5V6" stroke="black" stroke-width="1.5" stroke-linecap="round" stroke-linejoin="round"/>
</svg>
