<svg width="24" height="24" viewBox="0 0 24 24" fill="none" xmlns="http://www.w3.org/2000/svg">
<path d="M22.1947 17.6218L13.9477 3.37179C13.7498 3.03053 13.4658 2.74724 13.124 2.55031C12.7822 2.35338 12.3946 2.24973 12.0002 2.24973C11.6057 2.24973 11.2181 2.35338 10.8763 2.55031C10.5346 2.74724 10.2505 3.03053 10.0527 3.37179V3.37253L1.80558 17.6218C1.60758 17.9638 1.50313 18.3518 1.50275 18.747C1.50237 19.1421 1.60606 19.5304 1.80341 19.8728C2.00075 20.2151 2.28478 20.4994 2.62691 20.6971C2.96904 20.8948 3.35721 20.999 3.75236 20.999H20.248C20.6431 20.999 21.0313 20.8948 21.3734 20.6971C21.7156 20.4994 21.9996 20.2151 22.1969 19.8728C22.3943 19.5304 22.498 19.1421 22.4976 18.747C22.4972 18.3518 22.3927 17.9638 22.1947 17.6218ZM11.2494 9.74972C11.2494 9.55081 11.3284 9.36005 11.4691 9.21939C11.6098 9.07874 11.8005 8.99972 11.9994 8.99972C12.1983 8.99972 12.3891 9.07874 12.5298 9.21939C12.6704 9.36005 12.7494 9.55081 12.7494 9.74972V13.4997C12.7494 13.6986 12.6704 13.8894 12.5298 14.0301C12.3891 14.1707 12.1983 14.2497 11.9994 14.2497C11.8005 14.2497 11.6098 14.1707 11.4691 14.0301C11.3284 13.8894 11.2494 13.6986 11.2494 13.4997V9.74972ZM12 18C11.7775 18 11.56 17.934 11.375 17.8104C11.19 17.6868 11.0458 17.5111 10.9606 17.3055C10.8755 17.0999 10.8532 16.8737 10.8966 16.6555C10.94 16.4373 11.0472 16.2368 11.2045 16.0795C11.3618 15.9222 11.5623 15.815 11.7805 15.7716C11.9987 15.7282 12.2249 15.7505 12.4305 15.8356C12.6361 15.9208 12.8118 16.065 12.9354 16.25C13.059 16.435 13.125 16.6525 13.125 16.875C13.125 17.1734 13.0064 17.4595 12.7955 17.6705C12.5845 17.8814 12.2983 18 12 18Z" fill="black"/>
</svg>
